<svg width="180" height="40" viewBox="0 0 180 40" fill="none" xmlns="http://www.w3.org/2000/svg">
  <!-- Sparkles icon -->
  <rect x="2" y="8" width="24" height="24" rx="6" fill="#4338ca"/>
  <path d="M14 14l1.5 3 3 1.5-3 1.5-1.5 3-1.5-3-3-1.5 3-1.5 1.5-3z" fill="white"/>
  <path d="M19 12l0.8 1.6 1.6 0.8-1.6 0.8-0.8 1.6-0.8-1.6-1.6-0.8 1.6-0.8 0.8-1.6z" fill="white" opacity="0.7"/>
  <path d="M10 22l0.6 1.2 1.2 0.6-1.2 0.6-0.6 1.2-0.6-1.2-1.2-0.6 1.2-0.6 0.6-1.2z" fill="white" opacity="0.7"/>
  <!-- Text -->
  <text x="36" y="27" font-family="system-ui, -apple-system, sans-serif" font-size="20" font-weight="600" fill="#111827">Speats AI</text>
</svg>
